<?xml version="1.0" standalone="no"?>
<!DOCTYPE svg PUBLIC "-//W3C//DTD SVG 20010904//EN"
 "http://www.w3.org/TR/2001/REC-SVG-20010904/DTD/svg10.dtd">
<svg version="1.0" xmlns="http://www.w3.org/2000/svg"
 width="793.000000pt" height="1983.000000pt" viewBox="0 0 793.000000 1983.000000"
 preserveAspectRatio="xMidYMid meet">

<g transform="translate(0.000000,1983.000000) scale(0.100000,-0.100000)"
fill="#000000" stroke="none">
<path d="M0 9915 l0 -9915 3965 0 3965 0 0 9915 0 9915 -3965 0 -3965 0 0
-9915z m805 710 c3 -220 5 -553 3 -740 l-3 -340 -120 0 -120 0 0 615 0 615
-122 5 -123 5 80 120 80 120 159 0 159 0 7 -400z m516 395 c259 -49 424 -306
368 -572 -27 -124 -125 -255 -231 -309 -102 -51 -152 -59 -385 -59 l-213 0 0
125 0 125 201 0 c225 0 259 6 318 57 53 45 75 104 69 187 -5 80 -41 138 -107
173 -42 22 -53 23 -263 23 l-218 0 0 130 0 130 204 0 c112 0 227 -5 257 -10z
m1464 -1 c169 -31 304 -153 356 -319 24 -79 27 -212 5 -285 -40 -133 -152
-256 -284 -311 -4 -2 143 -273 267 -494 17 -30 31 -58 31 -62 0 -5 -62 -8
-139 -8 l-138 0 -144 270 -144 269 -115 3 -114 3 3 55 c2 42 11 70 39 120 l37
65 160 5 c173 6 196 12 246 67 49 52 61 89 57 169 -3 61 -8 79 -33 115 -17 23
-50 53 -74 66 -43 22 -51 23 -303 23 l-258 0 0 -615 0 -616 -122 3 -123 3 -2
734 c-2 403 0 737 3 742 8 13 718 11 789 -2z m1076 -261 c1 -236 1 -836 -1
-1125 l0 -93 -120 0 -120 0 0 745 0 745 120 0 120 0 1 -272z m900 100 c324
-363 411 -458 418 -458 4 0 33 30 65 68 32 37 158 178 280 314 l221 248 103 0
102 0 0 -745 0 -745 -120 0 -120 0 0 531 c0 292 -4 529 -8 527 -8 -3 -124
-129 -367 -398 -82 -91 -151 -166 -155 -168 -3 -1 -82 81 -175 184 -233 257
-345 378 -356 382 -5 2 -9 -217 -9 -527 l0 -531 -120 0 -120 0 0 745 0 745
103 0 103 0 155 -172z m2318 135 c10 -21 66 -148 124 -283 58 -135 183 -423
277 -640 95 -217 185 -425 201 -462 l28 -68 -133 0 -134 0 -30 73 c-16 39 -93
216 -169 392 -77 176 -166 382 -199 458 -32 75 -62 137 -65 137 -3 0 -17 -28
-31 -62 -21 -53 -315 -734 -403 -935 l-28 -63 -129 0 -129 0 7 23 c3 12 42
103 85 202 84 195 299 687 359 825 38 86 151 348 176 408 l14 32 80 0 80 0 19
-37z m-1 -1205 c51 -130 92 -239 92 -242 0 -4 -55 -5 -122 -4 l-122 3 -23 60
c-52 132 -52 127 13 290 32 80 61 142 64 138 4 -5 48 -114 98 -245z"/>
</g>
</svg>
