<svg viewBox="0 0 793 1983" xmlns="http://www.w3.org/2000/svg">
  <g transform="translate(0, 1983) scale(0.1, -0.1)">
    <path d="m805 710 c3 -220 5 -553 3 -740 l-3 -340 -120 0 -120 0 0 615 0 615
-122 5 -123 5 80 120 80 120 159 0 159 0 7 -400z m516 395 c259 -49 424 -306
368 -572 -27 -124 -125 -255 -231 -309 -102 -51 -152 -59 -385 -59 l-213 0 0
125 0 125 201 0 c225 0 259 6 318 57 53 45 75 104 69 187 -5 80 -41 138 -107
173 -42 22 -53 23 -263 23 l-218 0 0 130 0 130 204 0 c112 0 227 -5 257 -10z
" fill="cyan" fill-rule="evenodd"/>
  </g>
</svg>